<?xml version="1.0" encoding="UTF-8"?>
<svg id="Capa_2" data-name="Capa 2" xmlns="http://www.w3.org/2000/svg" viewBox="0 0 425 111.11">
  <defs>
    <style>
      .cls-1 {
        fill: #fff;
      }
    </style>
  </defs>
  <g id="Capa_1-2" data-name="Capa 1">
    <g>
      <path class="cls-1" d="m394.14,38.23c-8.59.18-16.35,2.89-21.43,8.15-5.08,5.25-7.68,12.32-7.8,21.2.12,8.85,2.72,15.95,7.8,21.28,5.08,5.34,11.91,8.03,20.5,8.06,3.25-.02,6.15-.63,8.69-1.82,2.54-1.2,4.71-2.91,6.51-5.13l2.57,5.79c.15.38.34.69.46.84.18.22.47.31.81.32h11.57c.41-.01.72-.13.93-.36.21-.23.25-.4.23-.8v-30.35c0-16.51-10.99-27.17-30.85-27.17h0Zm9.12,38.85c-2.26,2.23-5.32,3.36-9.17,3.41-3.69-.06-6.66-1.22-8.92-3.49-2.26-2.27-3.42-5.28-3.48-9.02.05-3.8,1.18-6.82,3.39-9.07,2.21-2.25,5.21-3.4,9.01-3.45,3.8.05,6.84,1.2,9.13,3.45,2.28,2.25,3.45,5.27,3.51,9.07-.05,3.85-1.21,6.88-3.47,9.11Z"/>
      <path class="cls-1" d="m303.84,38.23h-14.82c-.41,0-.72.11-.94.33-.22.22-.33.53-.33.94v56.25c0,.35.11.63.32.84.21.21.49.31.84.32h14.83c.37,0,.63-.11.8-.32s.25-.49.25-.84v-56.48c0-.3-.1-.55-.28-.74-.18-.2-.4-.3-.67-.3h0Z"/>
      <path class="cls-1" d="m213.46,38.23c-24.52,0-27.93,15.95-27.93,26.95v30.69c0,.3.14.55.38.74.24.2.54.3.9.3h14.6c.3,0,.57-.11.8-.31.23-.2.35-.44.37-.75v-27.4c.32-4.98,1.41-8.46,3.28-10.45,1.86-1.99,3.94-2.97,6.24-2.94,2.73-.03,4.97,1.02,6.71,3.14,1.74,2.12,2.64,5.13,2.7,9.02v28.4c0,.36.11.66.32.9.21.24.49.37.84.38h14.72c.35,0,.63-.11.84-.33.21-.22.31-.53.32-.94v-32.13c-.11-7.7-2.89-25.28-25.07-25.28h0Z"/>
      <path class="cls-1" d="m148.79,38.4c-8.9.13-16,2.86-21.28,8.17-5.28,5.32-7.99,12.43-8.12,21.34.13,8.96,2.83,16.11,8.12,21.44,5.28,5.33,12.38,8.06,21.28,8.19,8.96-.13,16.09-2.86,21.38-8.19,5.3-5.33,8.01-12.47,8.13-21.44-.13-8.91-2.84-16.02-8.13-21.34-5.3-5.32-12.42-8.04-21.38-8.17Zm9.01,38.64c-2.23,2.26-5.24,3.44-9.01,3.55-3.77-.06-6.75-1.22-8.96-3.5-2.2-2.28-3.32-5.34-3.37-9.17.05-3.83,1.17-6.84,3.37-9.06,2.2-2.21,5.19-3.34,8.96-3.39,3.83.05,6.84,1.18,9.06,3.39,2.21,2.21,3.34,5.23,3.39,9.06-.05,3.83-1.2,6.87-3.43,9.13Z"/>
      <path class="cls-1" d="m107.84,66.63c-3.43-2.62-8.31-4.55-14.65-5.79-2.84-.57-5.06-1.19-6.67-1.87-1.61-.68-2.43-1.54-2.46-2.57.03-.67.62-1.26,1.77-1.77,1.16-.51,2.71-.78,4.67-.8.47,0,.97,0,1.49.03.53.02,1.08.09,1.67.21,2.79.58,5.01,1.26,6.66,2.05,1.65.78,2.82,1.35,3.51,1.7.11.06.23.09.36.1.13.01.28.02.45.02.24,0,.46-.06.66-.16.2-.11.33-.25.4-.42l5.95-11.1c.17-.3.21-.6.13-.9-.08-.3-.24-.55-.48-.73-1.03-.93-3.36-2.19-7-3.78-3.64-1.59-8.05-2.47-13.22-2.64-4.43-.04-8.5.62-12.2,1.99-3.7,1.36-6.65,3.43-8.84,6.19-2.19,2.76-3.24,6.23-3.15,10.4.19,4.25,1.7,7.76,4.54,10.54,2.84,2.78,6.89,4.92,12.16,6.42,3.6,1,6.56,1.89,8.89,2.67,2.34.78,3.55,1.76,3.63,2.94-.04.72-.66,1.3-1.87,1.75-1.21.45-2.77.69-4.68.7-2.68-.03-5.25-.46-7.7-1.3-2.46-.84-4.88-1.88-7.26-3.14-.12-.06-.23-.11-.35-.16s-.23-.07-.35-.07c-.47,0-.82.23-1.05.7l-5.72,11.68c-.17.35-.23.65-.17.9.06.26.23.5.53.73,1.18.97,3.88,2.21,8.1,3.71,4.23,1.5,9.24,2.33,15.03,2.48,6.9,0,12.42-1.66,16.55-4.99,4.14-3.33,6.18-7.97,6.12-13.93-.2-5.22-2.02-9.14-5.45-11.76h0Z"/>
      <path class="cls-1" d="m354.13,66.63c-3.43-2.62-8.31-4.55-14.65-5.79-2.84-.57-5.06-1.19-6.67-1.87-1.61-.68-2.43-1.54-2.46-2.57.03-.67.62-1.26,1.77-1.77,1.15-.51,2.71-.78,4.67-.8.47,0,.96,0,1.49.03.52.02,1.08.09,1.67.21,2.79.58,5.01,1.26,6.66,2.05,1.65.78,2.82,1.35,3.51,1.7.11.06.23.09.36.1.13.01.28.02.45.02.24,0,.46-.06.66-.16.2-.11.33-.25.4-.42l5.95-11.1c.17-.3.21-.6.13-.9s-.24-.55-.48-.73c-1.02-.93-3.36-2.19-6.99-3.78-3.64-1.59-8.05-2.47-13.22-2.64-4.43-.04-8.5.62-12.2,1.99-3.7,1.36-6.65,3.43-8.84,6.19-2.19,2.76-3.24,6.23-3.15,10.4.19,4.25,1.7,7.76,4.54,10.54,2.84,2.78,6.89,4.92,12.16,6.42,3.59,1,6.56,1.89,8.9,2.67,2.34.78,3.55,1.76,3.63,2.94-.04.72-.66,1.3-1.87,1.75-1.21.45-2.77.69-4.68.7-2.68-.03-5.25-.46-7.7-1.3-2.46-.84-4.88-1.88-7.25-3.14-.12-.06-.24-.11-.35-.16s-.23-.07-.35-.07c-.47,0-.82.23-1.05.7l-5.72,11.68c-.17.35-.23.65-.17.9.06.26.24.5.53.73,1.18.97,3.88,2.21,8.1,3.71,4.23,1.5,9.24,2.33,15.04,2.48,6.9,0,12.42-1.66,16.55-4.99,4.14-3.33,6.18-7.97,6.12-13.93-.2-5.22-2.02-9.14-5.45-11.76h0Z"/>
      <path class="cls-1" d="m279.98,38.23h-8.74c-7.41.65-13.88,3.08-18.47,7.74-3.61,3.66-6.7,8.23-6.7,13.79l.04.11v21.34l.12,14.55c0,.35.11.63.31.84.2.21.49.31.84.32h14.62c.35,0,.63-.11.84-.32.21-.21.31-.49.32-.84v-30.06s.55-11.34,8.02-11.37h8.82c.35,0,.62-.11.83-.32.2-.21.31-.5.31-.85v-13.74c0-.3-.11-.58-.31-.81-.21-.23-.48-.36-.83-.37Z"/>
      <path class="cls-1" d="m32.18,38.01c-3.29,0-4.07,0-4.07,0-14.18,0-28.12,13.67-28.12,29.3v42.64c0,.36.11.64.32.85.21.21.49.32.85.32h14.55c.37,0,.67-.11.92-.32.25-.21.38-.49.39-.85v-17.1c1.75,1.98,7.52,4.3,15.14,4.3,8.82-.03,15.83-2.74,21.04-8.12,5.21-5.38,7.88-12.53,8-21.45-.12-8.95-2.79-16.07-8-21.36-5.21-5.29-12.23-8.03-21.04-8.21h0Zm8.25,39.03c-2.26,2.27-5.23,3.43-8.92,3.49-3.85-.05-6.91-1.18-9.17-3.41-2.26-2.23-3.41-5.26-3.47-9.11.06-3.8,1.23-6.82,3.51-9.07,2.28-2.25,5.32-3.4,9.13-3.45,3.79.05,6.79,1.2,9.01,3.45,2.21,2.25,3.34,5.27,3.39,9.07-.06,3.74-1.22,6.75-3.48,9.02h0Z"/>
      <path class="cls-1" d="m301,12.97c-2.29-1.34-4.9-1.62-7.27-1-2.41.63-4.58,2.2-5.91,4.55-2.49,4.4-1.04,10.17,3.25,12.86,4.61,2.88,10.65,1.37,13.37-3.28,2.67-4.57,1.13-10.45-3.43-13.12h0Z"/>
      <path class="cls-1" d="m323.23,19.77c2.87-.75,4.59-3.69,3.84-6.56-.75-2.88-3.69-4.59-6.56-3.84-2.88.75-4.59,3.69-3.84,6.56.75,2.88,3.69,4.59,6.56,3.84Z"/>
      <path class="cls-1" d="m335.08,7.69c2.37-.62,3.66-3.29,2.46-5.62-.66-1.28-2.06-2.11-3.5-2.07-2.63.07-4.34,2.52-3.72,4.89.55,2.08,2.68,3.33,4.76,2.79h0Z"/>
      <path class="cls-1" d="m307.14.27c-2.08.55-3.33,2.68-2.79,4.77.55,2.08,2.68,3.34,4.76,2.79,2.08-.55,3.33-2.68,2.79-4.76-.55-2.08-2.68-3.33-4.77-2.79h0Z"/>
    </g>
  </g>
</svg>